<svg xmlns="http://www.w3.org/2000/svg" version="1.1" xmlns:xlink="http://www.w3.org/1999/xlink" xmlns:svgjs="http://svgjs.dev/svgjs" width="1000" height="1000" viewBox="0 0 1000 1000"><rect width="1000" height="1000" fill="#398378"></rect><g transform="matrix(0.7,0,0,0.7,149.57575771446034,404.87220895878954)"><svg viewBox="0 0 396 108" data-background-color="#398378" preserveAspectRatio="xMidYMid meet" height="272" width="1000" xmlns="http://www.w3.org/2000/svg" xmlns:xlink="http://www.w3.org/1999/xlink"><g id="tight-bounds" transform="matrix(1,0,0,1,0.24000007846609606,-0.04095886317892905)"><svg viewBox="0 0 395.52 108.08191772635787" height="108.08191772635787" width="395.52"><g><svg viewBox="0 0 573.2426792116884 156.64737078224783" height="108.08191772635787" width="395.52"><g transform="matrix(1,0,0,1,0,45.83575826374464)"><svg viewBox="0 0 395.5199999999999 64.97585425475856" height="64.97585425475856" width="395.5199999999999"><g id="textblocktransform"><svg viewBox="0 0 395.5199999999999 64.97585425475856" height="64.97585425475856" width="395.5199999999999" id="textblock"><g><svg viewBox="0 0 395.5199999999999 44.63670264965652" height="44.63670264965652" width="395.5199999999999"><g transform="matrix(1,0,0,1,0,0)"><svg width="395.5199999999999" viewBox="4.320000171661377 -33.08000183105469 298.5099792480469 33.69000244140625" height="44.63670264965652" data-palette-color="#ffffff"><g class="wordmark-text-0" data-fill-palette-color="primary" id="text-0"><path d="M10.79-20.58L10.79 0.15Q9.62 0 6.27 0L6.27 0 4.32 0 4.32-32.57Q5.88-32.47 7.76-32.47 9.64-32.47 10.42-32.67L10.42-32.67 18.63-18.73 26.51-32.67Q27.29-32.47 29.49-32.47 31.69-32.47 33.25-32.57L33.25-32.57 33.25 0 31.3 0Q27.95 0 26.78 0.15L26.78 0.15 26.78-21.73 18.8-7.45 10.79-20.58ZM44.43-3.86Q42.21-5.98 40.93-8.96 39.65-11.94 39.65-15.49 39.65-19.04 40.84-22.22 42.04-25.39 44.26-27.81 46.48-30.22 49.63-31.65 52.78-33.08 56.69-33.08L56.69-33.08Q63.43-33.08 68.04-28.83L68.04-28.83Q72.97-24.29 72.97-16.58L72.97-16.58Q72.97-9.11 67.89-4.15L67.89-4.15Q64.77-1.1 60.45 0.05L60.45 0.05Q58.32 0.61 55.48 0.61 52.63 0.61 49.64-0.56 46.65-1.73 44.43-3.86ZM46.43-15.82L46.43-15.82Q46.43-13.55 47.19-11.65 47.95-9.74 49.29-8.37L49.29-8.37Q52.15-5.49 56.64-5.49L56.64-5.49Q60.91-5.49 63.5-8.25L63.5-8.25Q66.14-11.11 66.14-16.04L66.14-16.04Q66.14-20.68 63.62-23.78L63.62-23.78Q60.91-27.1 56.2-27.1L56.2-27.1Q51.63-27.1 48.95-23.73L48.95-23.73Q46.43-20.58 46.43-15.82ZM93.79-33.08L93.79-33.08Q98.36-33.08 101.58-31.49L101.58-31.49 101.58-24.02 101.53-23.97Q100.17-26.07 95.77-26.76L95.77-26.76Q94.48-26.98 92.5-26.98 90.52-26.98 88.62-26.23 86.71-25.49 85.49-24.12L85.49-24.12Q83.12-21.46 83.12-16.53L83.12-16.53Q83.12-10.79 86.13-7.98L86.13-7.98Q88.62-5.64 92.72-5.64L92.72-5.64Q97.36-5.64 100.24-7.62L100.24-7.62Q101.29-8.33 102.02-9.38L102.02-9.38 102.09-9.33 102.09-2.49Q98.36 0.61 92.04 0.61L92.04 0.61Q84.59 0.61 80.37-4.13L80.37-4.13Q76.31-8.64 76.31-16.09L76.31-16.09Q76.31-23.97 80.76-28.52L80.76-28.52Q85.25-33.08 93.79-33.08ZM114.47-9.89L114.47 0.15Q112.79 0 110.17 0L110.17 0 108.24 0 108.24-32.57 109.22-32.52Q110.25-32.47 110.76-32.47L110.76-32.47 111.47-32.47Q113.62-32.47 114.47-32.67L114.47-32.67 114.47-18.87 124.36-32.57Q125.92-32.47 126.99-32.47L126.99-32.47 128.34-32.47Q130.85-32.47 131.93-32.67L131.93-32.67 122.5-20.36 131.78-1.95Q132.37-0.61 132.88 0L132.88 0 131.39 0Q126.24 0 124.97 0.2L124.97 0.2Q124.7-1.44 124.24-2.66L124.24-2.66 118.01-14.53 114.47-9.89ZM149.09-27L149.09 0.15Q147.91 0 143.06 0L143.06 0 142.28 0 142.28-27 137.44-27Q135.29-27 134.9-26.78 134.51-26.56 134.29-26.39L134.29-26.39 134.22-26.42 134.22-32.67 134.29-32.74Q135.1-32.47 138.64-32.47L138.64-32.47 153.95-32.47Q156.09-32.47 156.48-32.69 156.87-32.91 157.09-33.08L157.09-33.08 157.17-33.06 157.17-26.81 157.09-26.73Q156.29-27 152.75-27L152.75-27 149.09-27ZM178.58 0.2L172.91-12.62Q172.18-12.57 171.35-12.57 170.52-12.57 168.88-12.7L168.88-12.7 168.88 0 162.41 0 162.41-32.64Q165.83-33.08 170.81-33.08L170.81-33.08Q177.6-33.08 180.93-30.58 184.26-28.08 184.26-22.85L184.26-22.85Q184.26-18.8 181.21-15.92L181.21-15.92Q180.21-14.99 178.92-14.31L178.92-14.31 183.9-3.81Q185.36-0.56 186.14 0.05L186.14 0.05 186.02 0.17Q183.65-0.22 178.58 0.2L178.58 0.2ZM171.28-27.32L171.28-27.32Q170.03-27.32 168.88-27.2L168.88-27.2 168.88-17.87Q170.08-17.7 171.69-17.7 173.3-17.7 174.4-17.98 175.5-18.26 176.31-18.85L176.31-18.85Q178.04-20.14 178.04-22.73 178.04-25.32 176.23-26.37L176.23-26.37Q174.55-27.32 171.28-27.32ZM196.2-7.03L193.91 0.2Q191.81 0 189 0L189 0 187.07 0 197.69-29.76Q198.4-31.76 198.4-32.09 198.4-32.42 198.37-32.5L198.37-32.5 198.4-32.54Q199.99-32.47 201.77-32.47L201.77-32.47Q203.23-32.47 205.28-32.52L205.28-32.52 205.31-32.47Q205.26-32.37 205.26-32.2L205.26-32.2Q205.26-31.74 205.99-29.74L205.99-29.74 216.83 0.07Q216.34 0.05 215.68 0.05L215.68 0.05Q215.68 0.05 214.41 0L214.41 0Q213.8 0 213.32 0L213.32 0 209.53 0 207.24-7.03 196.2-7.03ZM198.06-12.89L205.33-12.89 201.65-24.24 198.06-12.89ZM228.67 0.61L228.67 0.61Q224.71 0.61 221.22-0.02L221.22-0.02 221.22-32.69Q224.45-33.08 228.71-33.08 232.97-33.08 236.42-31.92 239.88-30.76 242.19-28.61L242.19-28.61Q246.88-24.32 246.88-16.58L246.88-16.58Q246.88-7.91 241.66-3.42L241.66-3.42Q236.97 0.61 228.67 0.61ZM227.57-27.1L227.57-5.35Q229.16-5.05 230.74-5.05 232.33-5.05 234.16-5.68 235.99-6.3 237.34-7.62L237.34-7.62Q240.22-10.4 240.22-15.72L240.22-15.72Q240.22-24.46 233.84-26.46L233.84-26.46Q231.75-27.12 228.99-27.12L228.99-27.12 228.33-27.12Q227.96-27.12 227.57-27.1L227.57-27.1ZM260.43-5.86L270.39-5.86Q271.9-5.86 272.49-6.15L272.49-6.15 272.59-6.13 272.34 0 254.06 0 254.06-32.64Q254.72-32.59 255.52-32.57L255.52-32.57 257.23-32.52Q258.94-32.47 260.94-32.47L260.94-32.47Q266.53-32.47 272-32.67L272-32.67Q271.73-30.52 271.73-26.93L271.73-26.93Q271.73-26.54 271.78-26.34L271.78-26.34 271.73-26.27Q270.46-26.64 268.12-26.64L268.12-26.64 260.43-26.64 260.43-20.41 266.22-20.41Q268.9-20.41 269.44-20.56L269.44-20.56 269.51-14.53Q268.34-14.65 266.48-14.65L266.48-14.65 260.43-14.65 260.43-5.86ZM295.27 0.2L289.6-12.62Q288.87-12.57 288.04-12.57 287.21-12.57 285.57-12.7L285.57-12.7 285.57 0 279.1 0 279.1-32.64Q282.52-33.08 287.5-33.08L287.5-33.08Q294.29-33.08 297.62-30.58 300.95-28.08 300.95-22.85L300.95-22.85Q300.95-18.8 297.9-15.92L297.9-15.92Q296.9-14.99 295.61-14.31L295.61-14.31 300.59-3.81Q302.05-0.56 302.83 0.05L302.83 0.05 302.71 0.17Q300.34-0.22 295.27 0.2L295.27 0.2ZM287.97-27.32L287.97-27.32Q286.72-27.32 285.57-27.2L285.57-27.2 285.57-17.87Q286.77-17.7 288.38-17.7 289.99-17.7 291.09-17.98 292.19-18.26 293-18.85L293-18.85Q294.73-20.14 294.73-22.73 294.73-25.32 292.92-26.37L292.92-26.37Q291.24-27.32 287.97-27.32Z" fill="#ffffff" data-fill-palette-color="primary"></path></g></svg></g></svg></g><g transform="matrix(1,0,0,1,163.31020799999996,55.17435686437683)"><svg viewBox="0 0 232.20979199999996 9.80149739038173" height="9.80149739038173" width="232.20979199999996"><g transform="matrix(1,0,0,1,0,0)"><svg width="232.20979199999996" viewBox="3.549999952316284 -36 867.6600341796875 36.599998474121094" height="9.80149739038173" data-palette-color="#ffffff"><path d="M8.85 0L3.55 0 3.55-35 15.8-35Q19.9-35 22.6-33.63 25.3-32.25 26.63-29.88 27.95-27.5 27.95-24.5L27.95-24.5Q27.95-21.65 26.68-19.28 25.4-16.9 22.7-15.5 20-14.1 15.8-14.1L15.8-14.1 8.85-14.1 8.85 0ZM8.85-30.65L8.85-18.45 15.55-18.45Q19.3-18.45 20.93-20.08 22.55-21.7 22.55-24.5L22.55-24.5Q22.55-27.4 20.93-29.03 19.3-30.65 15.55-30.65L15.55-30.65 8.85-30.65ZM38.3 0L33 0 33-24.8 37.75-24.8 38.2-20.1Q39.5-22.55 41.82-23.98 44.15-25.4 47.45-25.4L47.45-25.4 47.45-19.85 46-19.85Q43.8-19.85 42.07-19.13 40.35-18.4 39.32-16.68 38.3-14.95 38.3-11.9L38.3-11.9 38.3 0ZM60.4 0.6L60.4 0.6Q57.25 0.6 55.2-0.45 53.15-1.5 52.15-3.23 51.15-4.95 51.15-7L51.15-7Q51.15-10.6 53.95-12.7 56.75-14.8 61.95-14.8L61.95-14.8 68.45-14.8 68.45-15.25Q68.45-18.15 66.87-19.6 65.3-21.05 62.8-21.05L62.8-21.05Q60.6-21.05 58.97-19.98 57.35-18.9 57-16.8L57-16.8 51.7-16.8Q51.95-19.5 53.52-21.43 55.1-23.35 57.52-24.38 59.95-25.4 62.85-25.4L62.85-25.4Q68.05-25.4 70.9-22.68 73.75-19.95 73.75-15.25L73.75-15.25 73.75 0 69.15 0 68.7-4.25Q67.65-2.2 65.65-0.8 63.65 0.6 60.4 0.6ZM61.45-3.7L61.45-3.7Q63.6-3.7 65.07-4.73 66.55-5.75 67.37-7.45 68.2-9.15 68.4-11.2L68.4-11.2 62.5-11.2Q59.35-11.2 58.02-10.1 56.7-9 56.7-7.35L56.7-7.35Q56.7-5.65 57.97-4.67 59.25-3.7 61.45-3.7ZM91.69 0.6L91.69 0.6Q88.04 0.6 85.17-1.05 82.29-2.7 80.67-5.63 79.04-8.55 79.04-12.4L79.04-12.4Q79.04-16.25 80.67-19.18 82.29-22.1 85.17-23.75 88.04-25.4 91.69-25.4L91.69-25.4Q96.29-25.4 99.42-23 102.54-20.6 103.44-16.5L103.44-16.5 97.89-16.5Q97.39-18.55 95.69-19.7 93.99-20.85 91.69-20.85L91.69-20.85Q89.74-20.85 88.09-19.88 86.44-18.9 85.44-17.03 84.44-15.15 84.44-12.4L84.44-12.4Q84.44-9.65 85.44-7.78 86.44-5.9 88.09-4.9 89.74-3.9 91.69-3.9L91.69-3.9Q93.99-3.9 95.69-5.05 97.39-6.2 97.89-8.3L97.89-8.3 103.44-8.3Q102.59-4.3 99.44-1.85 96.29 0.6 91.69 0.6ZM123.19 0L119.09 0Q115.44 0 113.29-1.78 111.14-3.55 111.14-8.1L111.14-8.1 111.14-20.35 106.89-20.35 106.89-24.8 111.14-24.8 111.79-31.1 116.44-31.1 116.44-24.8 123.44-24.8 123.44-20.35 116.44-20.35 116.44-8.1Q116.44-6.05 117.31-5.28 118.19-4.5 120.34-4.5L120.34-4.5 123.19-4.5 123.19 0ZM131.89-29.5L131.89-29.5Q130.39-29.5 129.41-30.43 128.44-31.35 128.44-32.75L128.44-32.75Q128.44-34.15 129.41-35.08 130.39-36 131.89-36L131.89-36Q133.39-36 134.36-35.08 135.34-34.15 135.34-32.75L135.34-32.75Q135.34-31.35 134.36-30.43 133.39-29.5 131.89-29.5ZM134.54 0L129.24 0 129.24-24.8 134.54-24.8 134.54 0ZM153.28 0.6L153.28 0.6Q149.63 0.6 146.76-1.05 143.88-2.7 142.26-5.63 140.63-8.55 140.63-12.4L140.63-12.4Q140.63-16.25 142.26-19.18 143.88-22.1 146.76-23.75 149.63-25.4 153.28-25.4L153.28-25.4Q157.88-25.4 161.01-23 164.13-20.6 165.03-16.5L165.03-16.5 159.49-16.5Q158.99-18.55 157.28-19.7 155.59-20.85 153.28-20.85L153.28-20.85Q151.34-20.85 149.69-19.88 148.03-18.9 147.03-17.03 146.03-15.15 146.03-12.4L146.03-12.4Q146.03-9.65 147.03-7.78 148.03-5.9 149.69-4.9 151.34-3.9 153.28-3.9L153.28-3.9Q155.59-3.9 157.28-5.05 158.99-6.2 159.49-8.3L159.49-8.3 165.03-8.3Q164.19-4.3 161.03-1.85 157.88 0.6 153.28 0.6ZM182.38 0.6L182.38 0.6Q178.73 0.6 175.91-1.03 173.08-2.65 171.48-5.55 169.88-8.45 169.88-12.3L169.88-12.3Q169.88-16.2 171.46-19.15 173.03-22.1 175.86-23.75 178.68-25.4 182.43-25.4L182.43-25.4Q186.08-25.4 188.78-23.78 191.48-22.15 192.98-19.45 194.48-16.75 194.48-13.5L194.48-13.5Q194.48-13 194.46-12.43 194.43-11.85 194.38-11.15L194.38-11.15 175.08-11.15Q175.33-7.55 177.46-5.68 179.58-3.8 182.38-3.8L182.38-3.8Q184.63-3.8 186.16-4.83 187.68-5.85 188.43-7.6L188.43-7.6 193.73-7.6Q192.73-4.1 189.76-1.75 186.78 0.6 182.38 0.6ZM182.38-21.05L182.38-21.05Q179.73-21.05 177.68-19.48 175.63-17.9 175.18-14.75L175.18-14.75 189.18-14.75Q189.03-17.65 187.13-19.35 185.23-21.05 182.38-21.05ZM233.98 0L212.78 0 212.78-35 218.08-35 218.08-4.2 233.98-4.2 233.98 0ZM250.02 0.6L250.02 0.6Q246.38 0.6 243.55-1.03 240.72-2.65 239.13-5.55 237.52-8.45 237.52-12.3L237.52-12.3Q237.52-16.2 239.1-19.15 240.67-22.1 243.5-23.75 246.32-25.4 250.07-25.4L250.07-25.4Q253.72-25.4 256.43-23.78 259.13-22.15 260.63-19.45 262.13-16.75 262.13-13.5L262.13-13.5Q262.13-13 262.1-12.43 262.07-11.85 262.02-11.15L262.02-11.15 242.72-11.15Q242.97-7.55 245.1-5.68 247.22-3.8 250.02-3.8L250.02-3.8Q252.27-3.8 253.8-4.83 255.32-5.85 256.07-7.6L256.07-7.6 261.38-7.6Q260.38-4.1 257.4-1.75 254.42 0.6 250.02 0.6ZM250.02-21.05L250.02-21.05Q247.38-21.05 245.32-19.48 243.27-17.9 242.82-14.75L242.82-14.75 256.82-14.75Q256.68-17.65 254.77-19.35 252.88-21.05 250.02-21.05ZM276.02 0.6L276.02 0.6Q272.87 0.6 270.82-0.45 268.77-1.5 267.77-3.23 266.77-4.95 266.77-7L266.77-7Q266.77-10.6 269.57-12.7 272.37-14.8 277.57-14.8L277.57-14.8 284.07-14.8 284.07-15.25Q284.07-18.15 282.5-19.6 280.92-21.05 278.42-21.05L278.42-21.05Q276.22-21.05 274.6-19.98 272.97-18.9 272.62-16.8L272.62-16.8 267.32-16.8Q267.57-19.5 269.15-21.43 270.72-23.35 273.15-24.38 275.57-25.4 278.47-25.4L278.47-25.4Q283.67-25.4 286.52-22.68 289.37-19.95 289.37-15.25L289.37-15.25 289.37 0 284.77 0 284.32-4.25Q283.27-2.2 281.27-0.8 279.27 0.6 276.02 0.6ZM277.07-3.7L277.07-3.7Q279.22-3.7 280.7-4.73 282.17-5.75 283-7.45 283.82-9.15 284.02-11.2L284.02-11.2 278.12-11.2Q274.97-11.2 273.65-10.1 272.32-9 272.32-7.35L272.32-7.35Q272.32-5.65 273.6-4.67 274.87-3.7 277.07-3.7ZM306.87 0.6L306.87 0.6Q303.27 0.6 300.52-1.1 297.77-2.8 296.22-5.75 294.67-8.7 294.67-12.45L294.67-12.45Q294.67-16.2 296.22-19.13 297.77-22.05 300.54-23.73 303.32-25.4 306.92-25.4L306.92-25.4Q309.87-25.4 312.09-24.25 314.32-23.1 315.57-21L315.57-21 315.57-36 320.87-36 320.87 0 316.12 0 315.57-3.85Q314.37-2.1 312.27-0.75 310.17 0.6 306.87 0.6ZM307.82-4L307.82-4Q311.22-4 313.39-6.35 315.57-8.7 315.57-12.4L315.57-12.4Q315.57-16.15 313.39-18.48 311.22-20.8 307.82-20.8L307.82-20.8Q304.42-20.8 302.22-18.48 300.02-16.15 300.02-12.4L300.02-12.4Q300.02-9.95 301.02-8.05 302.02-6.15 303.79-5.08 305.57-4 307.82-4ZM337.47 0.6L337.47 0.6Q332.77 0.6 329.72-1.7 326.67-4 326.22-7.8L326.22-7.8 331.57-7.8Q331.97-6.1 333.47-4.88 334.97-3.65 337.42-3.65L337.42-3.65Q339.82-3.65 340.92-4.65 342.02-5.65 342.02-6.95L342.02-6.95Q342.02-8.85 340.49-9.53 338.97-10.2 336.27-10.75L336.27-10.75Q334.17-11.2 332.09-11.95 330.02-12.7 328.64-14.08 327.27-15.45 327.27-17.8L327.27-17.8Q327.27-21.05 329.77-23.23 332.27-25.4 336.77-25.4L336.77-25.4Q340.92-25.4 343.49-23.4 346.07-21.4 346.52-17.75L346.52-17.75 341.42-17.75Q341.17-19.35 339.94-20.25 338.72-21.15 336.67-21.15L336.67-21.15Q334.67-21.15 333.57-20.33 332.47-19.5 332.47-18.2L332.47-18.2Q332.47-16.9 333.99-16.15 335.52-15.4 338.02-14.8L338.02-14.8Q340.52-14.25 342.64-13.53 344.77-12.8 346.07-11.4 347.37-10 347.37-7.3L347.37-7.3Q347.42-3.9 344.74-1.65 342.07 0.6 337.47 0.6ZM380.26 0L376.16 0Q372.51 0 370.36-1.78 368.21-3.55 368.21-8.1L368.21-8.1 368.21-20.35 363.96-20.35 363.96-24.8 368.21-24.8 368.86-31.1 373.51-31.1 373.51-24.8 380.51-24.8 380.51-20.35 373.51-20.35 373.51-8.1Q373.51-6.05 374.39-5.28 375.26-4.5 377.41-4.5L377.41-4.5 380.26-4.5 380.26 0ZM396.91 0.6L396.91 0.6Q393.36 0.6 390.54-1.03 387.71-2.65 386.06-5.58 384.41-8.5 384.41-12.4L384.41-12.4Q384.41-16.3 386.09-19.23 387.76-22.15 390.61-23.78 393.46-25.4 396.96-25.4L396.96-25.4Q400.51-25.4 403.34-23.78 406.16-22.15 407.84-19.23 409.51-16.3 409.51-12.4L409.51-12.4Q409.51-8.5 407.84-5.58 406.16-2.65 403.31-1.03 400.46 0.6 396.91 0.6ZM396.91-3.95L396.91-3.95Q398.81-3.95 400.44-4.9 402.06-5.85 403.06-7.73 404.06-9.6 404.06-12.4L404.06-12.4Q404.06-15.2 403.09-17.07 402.11-18.95 400.49-19.9 398.86-20.85 396.96-20.85L396.96-20.85Q395.06-20.85 393.44-19.9 391.81-18.95 390.81-17.07 389.81-15.2 389.81-12.4L389.81-12.4Q389.81-9.6 390.81-7.73 391.81-5.85 393.41-4.9 395.01-3.95 396.91-3.95ZM433.36 0L428.06 0 428.06-35 440.31-35Q444.41-35 447.11-33.63 449.81-32.25 451.13-29.88 452.46-27.5 452.46-24.5L452.46-24.5Q452.46-21.65 451.18-19.28 449.91-16.9 447.21-15.5 444.51-14.1 440.31-14.1L440.31-14.1 433.36-14.1 433.36 0ZM433.36-30.65L433.36-18.45 440.06-18.45Q443.81-18.45 445.43-20.08 447.06-21.7 447.06-24.5L447.06-24.5Q447.06-27.4 445.43-29.03 443.81-30.65 440.06-30.65L440.06-30.65 433.36-30.65ZM462.8 0L457.5 0 457.5-24.8 462.25-24.8 462.7-20.1Q464-22.55 466.33-23.98 468.65-25.4 471.95-25.4L471.95-25.4 471.95-19.85 470.5-19.85Q468.3-19.85 466.58-19.13 464.85-18.4 463.83-16.68 462.8-14.95 462.8-11.9L462.8-11.9 462.8 0ZM487.4 0.6L487.4 0.6Q483.85 0.6 481.03-1.03 478.2-2.65 476.55-5.58 474.9-8.5 474.9-12.4L474.9-12.4Q474.9-16.3 476.58-19.23 478.25-22.15 481.1-23.78 483.95-25.4 487.45-25.4L487.45-25.4Q491-25.4 493.83-23.78 496.65-22.15 498.33-19.23 500-16.3 500-12.4L500-12.4Q500-8.5 498.33-5.58 496.65-2.65 493.8-1.03 490.95 0.6 487.4 0.6ZM487.4-3.95L487.4-3.95Q489.3-3.95 490.93-4.9 492.55-5.85 493.55-7.73 494.55-9.6 494.55-12.4L494.55-12.4Q494.55-15.2 493.58-17.07 492.6-18.95 490.98-19.9 489.35-20.85 487.45-20.85L487.45-20.85Q485.55-20.85 483.93-19.9 482.3-18.95 481.3-17.07 480.3-15.2 480.3-12.4L480.3-12.4Q480.3-9.6 481.3-7.73 482.3-5.85 483.9-4.9 485.5-3.95 487.4-3.95ZM512.3 0L507 0 507-20.35 503.45-20.35 503.45-24.8 507-24.8 507-28.4Q507-32.45 509.02-34.23 511.05-36 514.75-36L514.75-36 517.35-36 517.35-31.5 515.55-31.5Q513.8-31.5 513.05-30.78 512.3-30.05 512.3-28.35L512.3-28.35 512.3-24.8 518-24.8 518-20.35 512.3-20.35 512.3 0ZM526.04-29.5L526.04-29.5Q524.54-29.5 523.57-30.43 522.59-31.35 522.59-32.75L522.59-32.75Q522.59-34.15 523.57-35.08 524.54-36 526.04-36L526.04-36Q527.54-36 528.52-35.08 529.49-34.15 529.49-32.75L529.49-32.75Q529.49-31.35 528.52-30.43 527.54-29.5 526.04-29.5ZM528.69 0L523.39 0 523.39-24.8 528.69-24.8 528.69 0ZM550.19 0L546.09 0Q542.44 0 540.29-1.78 538.14-3.55 538.14-8.1L538.14-8.1 538.14-20.35 533.89-20.35 533.89-24.8 538.14-24.8 538.79-31.1 543.44-31.1 543.44-24.8 550.44-24.8 550.44-20.35 543.44-20.35 543.44-8.1Q543.44-6.05 544.32-5.28 545.19-4.5 547.34-4.5L547.34-4.5 550.19-4.5 550.19 0ZM564.29 0.6L564.29 0.6Q561.14 0.6 559.09-0.45 557.04-1.5 556.04-3.23 555.04-4.95 555.04-7L555.04-7Q555.04-10.6 557.84-12.7 560.64-14.8 565.84-14.8L565.84-14.8 572.34-14.8 572.34-15.25Q572.34-18.15 570.76-19.6 569.19-21.05 566.69-21.05L566.69-21.05Q564.49-21.05 562.86-19.98 561.24-18.9 560.89-16.8L560.89-16.8 555.59-16.8Q555.84-19.5 557.41-21.43 558.99-23.35 561.41-24.38 563.84-25.4 566.74-25.4L566.74-25.4Q571.94-25.4 574.79-22.68 577.64-19.95 577.64-15.25L577.64-15.25 577.64 0 573.04 0 572.59-4.25Q571.54-2.2 569.54-0.8 567.54 0.6 564.29 0.6ZM565.34-3.7L565.34-3.7Q567.49-3.7 568.96-4.73 570.44-5.75 571.26-7.45 572.09-9.15 572.29-11.2L572.29-11.2 566.39-11.2Q563.24-11.2 561.91-10.1 560.59-9 560.59-7.35L560.59-7.35Q560.59-5.65 561.86-4.67 563.14-3.7 565.34-3.7ZM597.79 0.6L597.79 0.6Q594.89 0.6 592.66-0.55 590.44-1.7 589.14-3.8L589.14-3.8 588.59 0 583.84 0 583.84-36 589.14-36 589.14-20.95Q590.34-22.7 592.44-24.05 594.54-25.4 597.84-25.4L597.84-25.4Q601.44-25.4 604.19-23.7 606.94-22 608.51-19.05 610.09-16.1 610.09-12.35L610.09-12.35Q610.09-8.6 608.51-5.68 606.94-2.75 604.19-1.07 601.44 0.6 597.79 0.6ZM596.89-4L596.89-4Q600.29-4 602.49-6.33 604.69-8.65 604.69-12.4L604.69-12.4Q604.69-14.85 603.69-16.75 602.69-18.65 600.94-19.73 599.19-20.8 596.89-20.8L596.89-20.8Q593.49-20.8 591.31-18.45 589.14-16.1 589.14-12.4L589.14-12.4Q589.14-8.65 591.31-6.33 593.49-4 596.89-4ZM621.13 0L615.83 0 615.83-36 621.13-36 621.13 0ZM639.43 0.6L639.43 0.6Q635.78 0.6 632.96-1.03 630.13-2.65 628.53-5.55 626.93-8.45 626.93-12.3L626.93-12.3Q626.93-16.2 628.51-19.15 630.08-22.1 632.91-23.75 635.73-25.4 639.48-25.4L639.48-25.4Q643.13-25.4 645.83-23.78 648.53-22.15 650.03-19.45 651.53-16.75 651.53-13.5L651.53-13.5Q651.53-13 651.51-12.43 651.48-11.85 651.43-11.15L651.43-11.15 632.13-11.15Q632.38-7.55 634.51-5.68 636.63-3.8 639.43-3.8L639.43-3.8Q641.68-3.8 643.21-4.83 644.73-5.85 645.48-7.6L645.48-7.6 650.78-7.6Q649.78-4.1 646.81-1.75 643.83 0.6 639.43 0.6ZM639.43-21.05L639.43-21.05Q636.78-21.05 634.73-19.48 632.68-17.9 632.23-14.75L632.23-14.75 646.23-14.75Q646.08-17.65 644.18-19.35 642.28-21.05 639.43-21.05ZM675.13 0L669.83 0 669.83-35 682.08-35Q686.18-35 688.88-33.63 691.58-32.25 692.9-29.88 694.23-27.5 694.23-24.5L694.23-24.5Q694.23-21.65 692.95-19.28 691.68-16.9 688.98-15.5 686.28-14.1 682.08-14.1L682.08-14.1 675.13-14.1 675.13 0ZM675.13-30.65L675.13-18.45 681.83-18.45Q685.58-18.45 687.2-20.08 688.83-21.7 688.83-24.5L688.83-24.5Q688.83-27.4 687.2-29.03 685.58-30.65 681.83-30.65L681.83-30.65 675.13-30.65ZM709.52 0.6L709.52 0.6Q705.97 0.6 703.15-1.03 700.32-2.65 698.67-5.58 697.02-8.5 697.02-12.4L697.02-12.4Q697.02-16.3 698.7-19.23 700.37-22.15 703.22-23.78 706.07-25.4 709.57-25.4L709.57-25.4Q713.12-25.4 715.95-23.78 718.77-22.15 720.45-19.23 722.12-16.3 722.12-12.4L722.12-12.4Q722.12-8.5 720.45-5.58 718.77-2.65 715.92-1.03 713.07 0.6 709.52 0.6ZM709.52-3.95L709.52-3.95Q711.42-3.95 713.05-4.9 714.67-5.85 715.67-7.73 716.67-9.6 716.67-12.4L716.67-12.4Q716.67-15.2 715.7-17.07 714.72-18.95 713.1-19.9 711.47-20.85 709.57-20.85L709.57-20.85Q707.67-20.85 706.05-19.9 704.42-18.95 703.42-17.07 702.42-15.2 702.42-12.4L702.42-12.4Q702.42-9.6 703.42-7.73 704.42-5.85 706.02-4.9 707.62-3.95 709.52-3.95ZM741.37 0L737.27 0Q733.62 0 731.47-1.78 729.32-3.55 729.32-8.1L729.32-8.1 729.32-20.35 725.07-20.35 725.07-24.8 729.32-24.8 729.97-31.1 734.62-31.1 734.62-24.8 741.62-24.8 741.62-20.35 734.62-20.35 734.62-8.1Q734.62-6.05 735.5-5.28 736.37-4.5 738.52-4.5L738.52-4.5 741.37-4.5 741.37 0ZM758.02 0.6L758.02 0.6Q754.37 0.6 751.54-1.03 748.72-2.65 747.12-5.55 745.52-8.45 745.52-12.3L745.52-12.3Q745.52-16.2 747.09-19.15 748.67-22.1 751.49-23.75 754.32-25.4 758.07-25.4L758.07-25.4Q761.72-25.4 764.42-23.78 767.12-22.15 768.62-19.45 770.12-16.75 770.12-13.5L770.12-13.5Q770.12-13 770.09-12.43 770.07-11.85 770.02-11.15L770.02-11.15 750.72-11.15Q750.97-7.55 753.09-5.68 755.22-3.8 758.02-3.8L758.02-3.8Q760.27-3.8 761.79-4.83 763.32-5.85 764.07-7.6L764.07-7.6 769.37-7.6Q768.37-4.1 765.39-1.75 762.42 0.6 758.02 0.6ZM758.02-21.05L758.02-21.05Q755.37-21.05 753.32-19.48 751.27-17.9 750.82-14.75L750.82-14.75 764.82-14.75Q764.67-17.65 762.77-19.35 760.87-21.05 758.02-21.05ZM780.92 0L775.62 0 775.62-24.8 780.32-24.8 780.72-20.45Q781.87-22.75 784.09-24.08 786.32-25.4 789.22-25.4L789.22-25.4Q793.72-25.4 796.29-22.6 798.87-19.8 798.87-14.25L798.87-14.25 798.87 0 793.62 0 793.62-13.7Q793.62-20.9 787.72-20.9L787.72-20.9Q784.77-20.9 782.84-18.8 780.92-16.7 780.92-12.8L780.92-12.8 780.92 0ZM819.61 0L815.51 0Q811.86 0 809.71-1.78 807.56-3.55 807.56-8.1L807.56-8.1 807.56-20.35 803.31-20.35 803.31-24.8 807.56-24.8 808.21-31.1 812.86-31.1 812.86-24.8 819.86-24.8 819.86-20.35 812.86-20.35 812.86-8.1Q812.86-6.05 813.74-5.28 814.61-4.5 816.76-4.5L816.76-4.5 819.61-4.5 819.61 0ZM828.31-29.5L828.31-29.5Q826.81-29.5 825.84-30.43 824.86-31.35 824.86-32.75L824.86-32.75Q824.86-34.15 825.84-35.08 826.81-36 828.31-36L828.31-36Q829.81-36 830.79-35.08 831.76-34.15 831.76-32.75L831.76-32.75Q831.76-31.35 830.79-30.43 829.81-29.5 828.31-29.5ZM830.96 0L825.66 0 825.66-24.8 830.96-24.8 830.96 0ZM846.36 0.6L846.36 0.6Q843.21 0.6 841.16-0.45 839.11-1.5 838.11-3.23 837.11-4.95 837.11-7L837.11-7Q837.11-10.6 839.91-12.7 842.71-14.8 847.91-14.8L847.91-14.8 854.41-14.8 854.41-15.25Q854.41-18.15 852.83-19.6 851.26-21.05 848.76-21.05L848.76-21.05Q846.56-21.05 844.93-19.98 843.31-18.9 842.96-16.8L842.96-16.8 837.66-16.8Q837.91-19.5 839.48-21.43 841.06-23.35 843.48-24.38 845.91-25.4 848.81-25.4L848.81-25.4Q854.01-25.4 856.86-22.68 859.71-19.95 859.71-15.25L859.71-15.25 859.71 0 855.11 0 854.66-4.25Q853.61-2.2 851.61-0.8 849.61 0.6 846.36 0.6ZM847.41-3.7L847.41-3.7Q849.56-3.7 851.03-4.73 852.51-5.75 853.33-7.45 854.16-9.15 854.36-11.2L854.36-11.2 848.46-11.2Q845.31-11.2 843.98-10.1 842.66-9 842.66-7.35L842.66-7.35Q842.66-5.65 843.93-4.67 845.21-3.7 847.41-3.7ZM871.21 0L865.91 0 865.91-36 871.21-36 871.21 0Z" opacity="1" transform="matrix(1,0,0,1,0,0)" fill="#ffffff" class="slogan-text-1" data-fill-palette-color="secondary" id="text-1"></path></svg></g></svg></g></svg></g></svg></g><g transform="matrix(1,0,0,1,416.59530842944054,0)"><svg viewBox="0 0 156.64737078224783 156.64737078224783" height="156.64737078224783" width="156.64737078224783"><g><svg></svg></g><g id="icon-0"><svg viewBox="0 0 156.64737078224783 156.64737078224783" height="156.64737078224783" width="156.64737078224783"><g><path d="M0 78.324c0-43.257 35.067-78.324 78.324-78.324 43.257 0 78.324 35.067 78.323 78.324 0 43.257-35.067 78.324-78.323 78.323-43.257 0-78.324-35.067-78.324-78.323zM78.324 152.622c41.034 0 74.298-33.264 74.298-74.298 0-41.034-33.264-74.298-74.298-74.299-41.034 0-74.298 33.264-74.299 74.299 0 41.034 33.264 74.298 74.299 74.298z" data-fill-palette-color="accent" fill="#ffffff" stroke="transparent"></path></g><g transform="matrix(1,0,0,1,34.43320700136889,34.428806192727585)"><svg viewBox="0 0 87.78095677951005 87.78975839679266" height="87.78975839679266" width="87.78095677951005"><g><svg xmlns="http://www.w3.org/2000/svg" viewBox="7.980808258056641 7.968357086181641 112.00456237792969 112.01579284667969" x="0" y="0" height="87.78975839679266" width="87.78095677951005" class="icon-s-0" data-fill-palette-color="accent" id="s-0"><path d="M68 8A2.4 2.4 0 0 0 65.24 10a2.44 2.44 0 0 0-2.72-1.75c-11.87 1-23.25 4.45-32.83 11.73-9.87 7.5-15 17-19 28.43C6.48 60.36 7.42 71.15 11.83 83c4.07 10.88 9.83 19.22 19.56 25.73a85.3 85.3 0 0 0 13.16 7.72c4.47 1.92 9.5 2.64 14.3 3.23 12.25 1.52 22.37-2.84 32.71-9 9.52-5.67 18.66-13.31 23.64-23.41s5.83-22.09 3.67-33.19C114 28.81 93.29 10.67 68 8Zm44.35 70c-2.9 10.13-10.15 18.16-18.65 24.1-8.07 5.64-17.8 11.46-27.84 11.9a44.56 44.56 0 0 1-24.68-6.35c-8.11-4.77-15.66-9.89-20.12-18.45-4.62-8.86-9-20.7-7-30.82 2.2-11.26 7.12-22.73 15.58-30.6 9.06-8.43 20.75-12.52 32.91-13.59a3.06 3.06 0 0 0 2.78-2.49A3.1 3.1 0 0 0 68 14a50.87 50.87 0 0 1 43.14 34.24C114.36 57.75 115.15 68.33 112.37 78Z" fill="#ffffff" data-fill-palette-color="accent"></path><path d="M78.35 33.79a2.93 2.93 0 0 0-1.21 1.42 2.76 2.76 0 0 0-1.23 1.24c-3.06 5.83-2.83 14.09 0 20.05 2.43 5.12 8.6 7 12.59 2.41s4.8-14.77 3.23-20.47C90.06 32.45 83.29 30.68 78.35 33.79Zm7.72 11.73c-0.07 2.18 0.12 7.46-1.81 9.09-3.06 2.6-3.9-4-4.2-6-0.48-3.19-0.51-6.24 1-9.17a3.31 3.31 0 0 0 0.18-0.46l0.1-0.05C86.61 35.68 86.15 42.82 86.06 45.53Z" fill="#ffffff" data-fill-palette-color="accent"></path><path d="M53.59 54.62a3.09 3.09 0 0 0 1.12 0.07c2.14 0.8 5-0.73 4-3.39A16 16 0 0 0 49 41.86c-5.5-2-10.43-0.88-15.76 1.05-3.6 1.3-2 7.1 1.6 5.79 4.25-1.54 9.9-2.66 14-0.58A17.22 17.22 0 0 0 36 54c-2.5 2.91 1.72 7.18 4.24 4.24C43.67 54.22 48.57 53.35 53.59 54.62Z" fill="#ffffff" data-fill-palette-color="accent"></path><path d="M83.32 80.37c-0.44 0.38-0.9 0.75-1.36 1.11a3.3 3.3 0 0 0-2.67 1.89C68.21 90.46 53.55 91 44.42 79.94c-2.46-3-6.68 1.28-4.24 4.24A27.72 27.72 0 0 0 61.05 94.45C62.92 103 71.68 112.31 81 107.53c6.56-3.38 8.49-14.87 5.36-21.89q0.63-0.5 1.24-1C90.5 82.09 86.24 77.86 83.32 80.37Zm-4.1 21.09c-4.78 4.67-10.64-2.51-12.14-7.34a39.63 39.63 0 0 0 14.15-5C82.41 93 81.53 99.22 79.22 101.47Z" fill="#ffffff" data-fill-palette-color="accent"></path></svg></g></svg></g></svg></g></svg></g></svg></g><defs></defs></svg><rect width="395.52" height="108.08191772635787" fill="none" stroke="none" visibility="hidden"></rect></g></svg></g></svg>